<mxfile host="app.diagrams.net" agent="Mozilla/5.0 (Windows NT 10.0; Win64; x64) AppleWebKit/537.36 (KHTML, like Gecko) Chrome/120.0.0.0 Safari/537.36" version="26.1.3">
  <diagram name="第 1 页" id="5QAW8TJ9fIxs87AQKnce">
    <mxGraphModel dx="1434" dy="738" grid="1" gridSize="10" guides="1" tooltips="1" connect="1" arrows="1" fold="1" page="1" pageScale="1" pageWidth="735" pageHeight="465" math="0" shadow="0">
      <root>
        <mxCell id="0" />
        <mxCell id="1" parent="0" />
        <mxCell id="n7sWC-3UwM7c74jMajDk-1" style="edgeStyle=orthogonalEdgeStyle;rounded=0;orthogonalLoop=1;jettySize=auto;html=1;exitX=1;exitY=0.5;exitDx=0;exitDy=0;entryX=0;entryY=0.5;entryDx=0;entryDy=0;" parent="1" source="n7sWC-3UwM7c74jMajDk-4" target="n7sWC-3UwM7c74jMajDk-9" edge="1">
          <mxGeometry relative="1" as="geometry" />
        </mxCell>
        <mxCell id="n7sWC-3UwM7c74jMajDk-2" style="edgeStyle=orthogonalEdgeStyle;rounded=0;orthogonalLoop=1;jettySize=auto;html=1;exitX=1;exitY=0.5;exitDx=0;exitDy=0;entryX=0;entryY=0.5;entryDx=0;entryDy=0;" parent="1" source="n7sWC-3UwM7c74jMajDk-4" target="n7sWC-3UwM7c74jMajDk-11" edge="1">
          <mxGeometry relative="1" as="geometry" />
        </mxCell>
        <mxCell id="n7sWC-3UwM7c74jMajDk-3" style="edgeStyle=orthogonalEdgeStyle;rounded=0;orthogonalLoop=1;jettySize=auto;html=1;exitX=1;exitY=0.5;exitDx=0;exitDy=0;entryX=0;entryY=0.75;entryDx=0;entryDy=0;" parent="1" source="n7sWC-3UwM7c74jMajDk-4" target="n7sWC-3UwM7c74jMajDk-10" edge="1">
          <mxGeometry relative="1" as="geometry" />
        </mxCell>
        <mxCell id="n7sWC-3UwM7c74jMajDk-4" value="&lt;p class=&quot;MsoNormal&quot;&gt;&lt;span style=&quot;font-family: 宋体; font-size: 20px;&quot;&gt;云边协同技术&lt;/span&gt;&lt;/p&gt;" style="rounded=0;whiteSpace=wrap;html=1;fillColor=#ffe6cc;strokeColor=#d79b00;" parent="1" vertex="1">
          <mxGeometry x="180" y="50" width="140" height="75" as="geometry" />
        </mxCell>
        <mxCell id="n7sWC-3UwM7c74jMajDk-5" style="edgeStyle=orthogonalEdgeStyle;rounded=0;orthogonalLoop=1;jettySize=auto;html=1;entryX=0;entryY=0.5;entryDx=0;entryDy=0;" parent="1" source="n7sWC-3UwM7c74jMajDk-8" target="n7sWC-3UwM7c74jMajDk-23" edge="1">
          <mxGeometry relative="1" as="geometry" />
        </mxCell>
        <mxCell id="n7sWC-3UwM7c74jMajDk-6" style="edgeStyle=orthogonalEdgeStyle;rounded=0;orthogonalLoop=1;jettySize=auto;html=1;entryX=0;entryY=0.5;entryDx=0;entryDy=0;" parent="1" source="n7sWC-3UwM7c74jMajDk-8" target="n7sWC-3UwM7c74jMajDk-4" edge="1">
          <mxGeometry relative="1" as="geometry" />
        </mxCell>
        <mxCell id="n7sWC-3UwM7c74jMajDk-7" style="edgeStyle=orthogonalEdgeStyle;rounded=0;orthogonalLoop=1;jettySize=auto;html=1;entryX=0;entryY=0.5;entryDx=0;entryDy=0;" parent="1" source="n7sWC-3UwM7c74jMajDk-8" target="n7sWC-3UwM7c74jMajDk-19" edge="1">
          <mxGeometry relative="1" as="geometry" />
        </mxCell>
        <mxCell id="n7sWC-3UwM7c74jMajDk-8" value="&lt;span style=&quot;font-family: 宋体; font-size: 20px;&quot;&gt;相关技术&lt;/span&gt;" style="rounded=0;whiteSpace=wrap;html=1;fillColor=#dae8fc;strokeColor=#6c8ebf;" parent="1" vertex="1">
          <mxGeometry y="230" width="100" height="70" as="geometry" />
        </mxCell>
        <mxCell id="n7sWC-3UwM7c74jMajDk-9" value="&lt;span style=&quot;font-family: 宋体; font-size: 20px;&quot;&gt;云计算&lt;/span&gt;" style="rounded=0;whiteSpace=wrap;html=1;fillColor=#d5e8d4;strokeColor=#82b366;" parent="1" vertex="1">
          <mxGeometry x="380" y="67.5" width="350" height="40" as="geometry" />
        </mxCell>
        <mxCell id="n7sWC-3UwM7c74jMajDk-10" value="&lt;p class=&quot;MsoNormal&quot;&gt;&lt;span style=&quot;font-size: 20px;&quot;&gt;&lt;font style=&quot;vertical-align: inherit;&quot;&gt;&lt;font face=&quot;宋体&quot; style=&quot;vertical-align: inherit;&quot;&gt;边界计算&lt;/font&gt;&lt;/font&gt;&lt;/span&gt;&lt;/p&gt;" style="rounded=0;whiteSpace=wrap;html=1;fillColor=#d5e8d4;strokeColor=#82b366;" parent="1" vertex="1">
          <mxGeometry x="380" y="10" width="350" height="40" as="geometry" />
        </mxCell>
        <mxCell id="n7sWC-3UwM7c74jMajDk-11" value="&lt;span style=&quot;font-family: 宋体; font-size: 20px;&quot;&gt;云边协同&lt;/span&gt;&lt;span style=&quot;font-family: 宋体; font-size: 20px;&quot;&gt;计算&lt;/span&gt;" style="rounded=0;whiteSpace=wrap;html=1;fillColor=#d5e8d4;strokeColor=#82b366;" parent="1" vertex="1">
          <mxGeometry x="380" y="125" width="350" height="40" as="geometry" />
        </mxCell>
        <mxCell id="n7sWC-3UwM7c74jMajDk-12" value="&lt;span style=&quot;font-family: 宋体; font-size: 20px;&quot;&gt;云边协同车联网架构&lt;/span&gt;" style="rounded=0;whiteSpace=wrap;html=1;fillColor=#d5e8d4;strokeColor=#82b366;" parent="1" vertex="1">
          <mxGeometry x="380" y="187.5" width="350" height="40" as="geometry" />
        </mxCell>
        <mxCell id="n7sWC-3UwM7c74jMajDk-13" value="&lt;p style=&quot;text-indent:0.0000pt;mso-char-indent-count:0.0000;&quot; class=&quot;15&quot;&gt;&lt;span style=&quot;font-family: 宋体; font-size: 20px;&quot;&gt;云边协同车联网资源分配技术&lt;/span&gt;&lt;/p&gt;" style="rounded=0;whiteSpace=wrap;html=1;fillColor=#d5e8d4;strokeColor=#82b366;" parent="1" vertex="1">
          <mxGeometry x="380" y="302.5" width="350" height="40" as="geometry" />
        </mxCell>
        <mxCell id="n7sWC-3UwM7c74jMajDk-14" value="&lt;p class=&quot;MsoNormal&quot;&gt;&lt;span style=&quot;font-family: 宋体; font-size: 20px;&quot;&gt;云边协同车联网计算卸载技术&lt;/span&gt;&lt;/p&gt;" style="rounded=0;whiteSpace=wrap;html=1;fillColor=#d5e8d4;strokeColor=#82b366;" parent="1" vertex="1">
          <mxGeometry x="380" y="245" width="350" height="40" as="geometry" />
        </mxCell>
        <mxCell id="n7sWC-3UwM7c74jMajDk-15" value="&lt;p class=&quot;MsoNormal&quot;&gt;&lt;span style=&quot;font-size: 20px;&quot;&gt;&lt;font face=&quot;Times New Roman&quot;&gt;OMA&lt;/font&gt;&lt;/span&gt;&lt;span style=&quot;font-family: 宋体; font-size: 20px;&quot;&gt;通信技术&lt;/span&gt;&lt;/p&gt;" style="rounded=0;whiteSpace=wrap;html=1;fillColor=#d5e8d4;strokeColor=#82b366;" parent="1" vertex="1">
          <mxGeometry x="380" y="370" width="350" height="40" as="geometry" />
        </mxCell>
        <mxCell id="n7sWC-3UwM7c74jMajDk-16" value="&lt;p class=&quot;MsoNormal&quot;&gt;&lt;span style=&quot;font-size: 20px;&quot;&gt;&lt;font face=&quot;Times New Roman&quot;&gt;NOMA&lt;/font&gt;&lt;/span&gt;&lt;span style=&quot;font-family: 宋体; font-size: 20px;&quot;&gt;通信技术&lt;/span&gt;&lt;/p&gt;" style="rounded=0;whiteSpace=wrap;html=1;fillColor=#d5e8d4;strokeColor=#82b366;" parent="1" vertex="1">
          <mxGeometry x="380" y="420" width="350" height="40" as="geometry" />
        </mxCell>
        <mxCell id="n7sWC-3UwM7c74jMajDk-17" style="edgeStyle=orthogonalEdgeStyle;rounded=0;orthogonalLoop=1;jettySize=auto;html=1;exitX=1;exitY=0.5;exitDx=0;exitDy=0;entryX=0;entryY=0.75;entryDx=0;entryDy=0;" parent="1" source="n7sWC-3UwM7c74jMajDk-19" target="n7sWC-3UwM7c74jMajDk-15" edge="1">
          <mxGeometry relative="1" as="geometry" />
        </mxCell>
        <mxCell id="n7sWC-3UwM7c74jMajDk-18" style="edgeStyle=orthogonalEdgeStyle;rounded=0;orthogonalLoop=1;jettySize=auto;html=1;exitX=1;exitY=0.5;exitDx=0;exitDy=0;" parent="1" source="n7sWC-3UwM7c74jMajDk-19" target="n7sWC-3UwM7c74jMajDk-16" edge="1">
          <mxGeometry relative="1" as="geometry" />
        </mxCell>
        <mxCell id="n7sWC-3UwM7c74jMajDk-19" value="&lt;p class=&quot;MsoNormal&quot;&gt;&lt;span style=&quot;font-family: 宋体; font-size: 20px;&quot;&gt;网络通信技术&lt;/span&gt;&lt;/p&gt;" style="rounded=0;whiteSpace=wrap;html=1;fillColor=#ffe6cc;strokeColor=#d79b00;" parent="1" vertex="1">
          <mxGeometry x="180" y="380" width="140" height="75" as="geometry" />
        </mxCell>
        <mxCell id="n7sWC-3UwM7c74jMajDk-20" style="edgeStyle=orthogonalEdgeStyle;rounded=0;orthogonalLoop=1;jettySize=auto;html=1;exitX=1;exitY=0.5;exitDx=0;exitDy=0;entryX=0;entryY=0.5;entryDx=0;entryDy=0;" parent="1" source="n7sWC-3UwM7c74jMajDk-23" target="n7sWC-3UwM7c74jMajDk-14" edge="1">
          <mxGeometry relative="1" as="geometry" />
        </mxCell>
        <mxCell id="n7sWC-3UwM7c74jMajDk-21" style="edgeStyle=orthogonalEdgeStyle;rounded=0;orthogonalLoop=1;jettySize=auto;html=1;exitX=1;exitY=0.5;exitDx=0;exitDy=0;entryX=0;entryY=0.5;entryDx=0;entryDy=0;" parent="1" source="n7sWC-3UwM7c74jMajDk-23" target="n7sWC-3UwM7c74jMajDk-12" edge="1">
          <mxGeometry relative="1" as="geometry" />
        </mxCell>
        <mxCell id="n7sWC-3UwM7c74jMajDk-22" style="edgeStyle=orthogonalEdgeStyle;rounded=0;orthogonalLoop=1;jettySize=auto;html=1;exitX=1;exitY=0.5;exitDx=0;exitDy=0;entryX=0;entryY=0.5;entryDx=0;entryDy=0;" parent="1" source="n7sWC-3UwM7c74jMajDk-23" target="n7sWC-3UwM7c74jMajDk-13" edge="1">
          <mxGeometry relative="1" as="geometry" />
        </mxCell>
        <mxCell id="n7sWC-3UwM7c74jMajDk-23" value="&lt;p class=&quot;MsoNormal&quot;&gt;&lt;span style=&quot;font-family: 宋体; font-size: 20px;&quot;&gt;车联网技术&lt;/span&gt;&lt;/p&gt;" style="rounded=0;whiteSpace=wrap;html=1;fillColor=#ffe6cc;strokeColor=#d79b00;" parent="1" vertex="1">
          <mxGeometry x="180" y="227.5" width="140" height="75" as="geometry" />
        </mxCell>
      </root>
    </mxGraphModel>
  </diagram>
</mxfile>
